<svg width="75" height="75" viewBox="0 0 75 75" fill="none" xmlns="http://www.w3.org/2000/svg">
<path d="M23.8597 35.5069L28.3919 40.0602L34.1964 34.2327L29.6706 29.673L34.2059 25.1197L28.4138 19.2858L23.872 23.8455L19.3463 19.2858L13.5354 25.1197L18.0676 29.673L13.5258 34.2327L19.3244 40.0602L23.8597 35.5069Z" fill="#E44A77"/>
<path d="M55.1091 19.2858L50.5673 23.8455L46.0416 19.2858L40.2307 25.1197L44.7629 29.673L40.2211 34.2327L46.0197 40.0602L50.5551 35.5069L55.0872 40.0602L60.8917 34.2327L56.3659 29.673L60.9013 25.1197L55.1091 19.2858Z" fill="#E44A77"/>
<path d="M57.209 47.0443H17.4832L17.4745 55.2906H57.2004L57.209 47.0443Z" fill="#E44A77"/>
<path d="M11.476 0L0.0668184 11.4544L0.0120683 63.5456L11.3972 75H63.5241L74.9332 63.5456L74.988 11.4544L63.6029 0H11.476ZM66.7317 60.1307L60.1348 66.7536H14.8037L8.22082 60.1307L8.26839 14.8694L14.8652 8.24638H60.1963L66.7792 14.8694L66.7317 60.1307Z" fill="#E44A77"/>
</svg>
