<svg width="15" height="14" viewBox="0 0 15 14" fill="none" xmlns="http://www.w3.org/2000/svg">
<path d="M0.725806 0.5C0.323589 0.5 0 0.834375 0 1.25V2.75C0 3.16563 0.323589 3.5 0.725806 3.5H2.17742C2.57964 3.5 2.90323 3.16563 2.90323 2.75V1.25C2.90323 0.834375 2.57964 0.5 2.17742 0.5H0.725806ZM5.32258 1C4.7873 1 4.35484 1.44687 4.35484 2C4.35484 2.55312 4.7873 3 5.32258 3H14.0323C14.5675 3 15 2.55312 15 2C15 1.44687 14.5675 1 14.0323 1H5.32258ZM5.32258 6C4.7873 6 4.35484 6.44688 4.35484 7C4.35484 7.55312 4.7873 8 5.32258 8H14.0323C14.5675 8 15 7.55312 15 7C15 6.44688 14.5675 6 14.0323 6H5.32258ZM5.32258 11C4.7873 11 4.35484 11.4469 4.35484 12C4.35484 12.5531 4.7873 13 5.32258 13H14.0323C14.5675 13 15 12.5531 15 12C15 11.4469 14.5675 11 14.0323 11H5.32258ZM0 6.25V7.75C0 8.16563 0.323589 8.5 0.725806 8.5H2.17742C2.57964 8.5 2.90323 8.16563 2.90323 7.75V6.25C2.90323 5.83437 2.57964 5.5 2.17742 5.5H0.725806C0.323589 5.5 0 5.83437 0 6.25ZM0.725806 10.5C0.323589 10.5 0 10.8344 0 11.25V12.75C0 13.1656 0.323589 13.5 0.725806 13.5H2.17742C2.57964 13.5 2.90323 13.1656 2.90323 12.75V11.25C2.90323 10.8344 2.57964 10.5 2.17742 10.5H0.725806Z" fill="white"/>
</svg>
