<svg width="25" height="33" viewBox="0 0 25 33" fill="none" xmlns="http://www.w3.org/2000/svg">
<path d="M4.16667 0C1.86849 0 0 1.8498 0 4.125V28.875C0 31.1502 1.86849 33 4.16667 33H20.8333C23.1315 33 25 31.1502 25 28.875V10.3125H16.6667C15.5143 10.3125 14.5833 9.39082 14.5833 8.25V0H4.16667ZM16.6667 0V8.25H25L16.6667 0ZM7.29167 16.5H17.7083C18.2812 16.5 18.75 16.9641 18.75 17.5312C18.75 18.0984 18.2812 18.5625 17.7083 18.5625H7.29167C6.71875 18.5625 6.25 18.0984 6.25 17.5312C6.25 16.9641 6.71875 16.5 7.29167 16.5ZM7.29167 20.625H17.7083C18.2812 20.625 18.75 21.0891 18.75 21.6562C18.75 22.2234 18.2812 22.6875 17.7083 22.6875H7.29167C6.71875 22.6875 6.25 22.2234 6.25 21.6562C6.25 21.0891 6.71875 20.625 7.29167 20.625ZM7.29167 24.75H17.7083C18.2812 24.75 18.75 25.2141 18.75 25.7812C18.75 26.3484 18.2812 26.8125 17.7083 26.8125H7.29167C6.71875 26.8125 6.25 26.3484 6.25 25.7812C6.25 25.2141 6.71875 24.75 7.29167 24.75Z" fill="white"/>
</svg>
