<svg width="11" height="11" viewBox="0 0 11 11" fill="none" xmlns="http://www.w3.org/2000/svg">
<path d="M0 5.5C0 4.04131 0.579463 2.64236 1.61091 1.61091C2.64236 0.579463 4.04131 0 5.5 0C6.95869 0 8.35764 0.579463 9.38909 1.61091C10.4205 2.64236 11 4.04131 11 5.5C11 6.95869 10.4205 8.35764 9.38909 9.38909C8.35764 10.4205 6.95869 11 5.5 11C4.04131 11 2.64236 10.4205 1.61091 9.38909C0.579463 8.35764 0 6.95869 0 5.5ZM6.1875 2.0625C6.1875 1.88016 6.11507 1.7053 5.98614 1.57636C5.8572 1.44743 5.68234 1.375 5.5 1.375C5.31766 1.375 5.1428 1.44743 5.01386 1.57636C4.88493 1.7053 4.8125 1.88016 4.8125 2.0625C4.8125 2.24484 4.88493 2.4197 5.01386 2.54864C5.1428 2.67757 5.31766 2.75 5.5 2.75C5.68234 2.75 5.8572 2.67757 5.98614 2.54864C6.11507 2.4197 6.1875 2.24484 6.1875 2.0625ZM5.5 8.9375C6.2584 8.9375 6.875 8.3209 6.875 7.5625C6.875 7.18867 6.72676 6.85137 6.48613 6.6043L7.86328 3.47402C7.97715 3.21406 7.85898 2.90898 7.59902 2.79512C7.33906 2.68125 7.03398 2.79941 6.92012 3.05937L5.54082 6.1875C5.52793 6.1875 5.51289 6.1875 5.5 6.1875C4.7416 6.1875 4.125 6.8041 4.125 7.5625C4.125 8.3209 4.7416 8.9375 5.5 8.9375ZM3.78125 3.09375C3.78125 2.91141 3.70882 2.73655 3.57989 2.60761C3.45095 2.47868 3.27609 2.40625 3.09375 2.40625C2.91141 2.40625 2.73655 2.47868 2.60761 2.60761C2.47868 2.73655 2.40625 2.91141 2.40625 3.09375C2.40625 3.27609 2.47868 3.45095 2.60761 3.57989C2.73655 3.70882 2.91141 3.78125 3.09375 3.78125C3.27609 3.78125 3.45095 3.70882 3.57989 3.57989C3.70882 3.45095 3.78125 3.27609 3.78125 3.09375ZM2.0625 6.1875C2.24484 6.1875 2.4197 6.11507 2.54864 5.98614C2.67757 5.8572 2.75 5.68234 2.75 5.5C2.75 5.31766 2.67757 5.1428 2.54864 5.01386C2.4197 4.88493 2.24484 4.8125 2.0625 4.8125C1.88016 4.8125 1.7053 4.88493 1.57636 5.01386C1.44743 5.1428 1.375 5.31766 1.375 5.5C1.375 5.68234 1.44743 5.8572 1.57636 5.98614C1.7053 6.11507 1.88016 6.1875 2.0625 6.1875ZM9.625 5.5C9.625 5.31766 9.55257 5.1428 9.42364 5.01386C9.2947 4.88493 9.11984 4.8125 8.9375 4.8125C8.75516 4.8125 8.5803 4.88493 8.45136 5.01386C8.32243 5.1428 8.25 5.31766 8.25 5.5C8.25 5.68234 8.32243 5.8572 8.45136 5.98614C8.5803 6.11507 8.75516 6.1875 8.9375 6.1875C9.11984 6.1875 9.2947 6.11507 9.42364 5.98614C9.55257 5.8572 9.625 5.68234 9.625 5.5Z" fill="white" fill-opacity="0.85"/>
</svg>
