<svg width="25" height="28" viewBox="0 0 25 28" fill="none" xmlns="http://www.w3.org/2000/svg">
<path d="M12.239 0.0246118C12.412 -0.00820393 12.5905 -0.00820393 12.7635 0.0246118L23.9231 2.21233C24.548 2.33265 25 2.87411 25 3.49761C25 4.12111 24.548 4.66256 23.9231 4.78289L19.6434 5.62516V8.74812C19.6434 12.6149 16.4462 15.7488 12.5012 15.7488C8.55632 15.7488 5.35909 12.6149 5.35909 8.74812V5.62516L2.68079 5.10011V8.66061L3.55682 12.9485C3.60704 13.2056 3.54008 13.4736 3.37268 13.6759C3.20529 13.8783 2.94862 13.9986 2.68079 13.9986H0.895252C0.627422 13.9986 0.376331 13.8838 0.203357 13.6759C0.0303829 13.4681 -0.0365747 13.2056 0.0192233 12.9485L0.895252 8.66061V4.73366C0.365171 4.55318 0.00248387 4.06094 0.00248387 3.49761C0.00248387 2.87411 0.454448 2.33265 1.07939 2.21233L12.239 0.0246118ZM6.24628 17.9201C6.83216 17.7342 7.46268 17.942 7.88674 18.385L11.8484 22.5143C12.1999 22.8808 12.797 22.8808 13.1485 22.5143L17.1102 18.385C17.5342 17.942 18.1647 17.7342 18.7506 17.9201C22.3775 19.0632 25 22.3885 25 26.3209C25 27.2507 24.23 28 23.287 28H1.71548C0.772497 28 0.00248387 27.2452 0.00248387 26.3209C0.00248387 22.3885 2.62499 19.0632 6.24628 17.9201Z" fill="white"/>
</svg>
